<?xml version="1.0" encoding="UTF-8"?> <svg xmlns="http://www.w3.org/2000/svg" viewBox="0 0 324 74.27"><defs><style>.cls-1{fill:#003660;}</style></defs><g id="Layer_2" data-name="Layer 2"><g id="Layer_2-2" data-name="Layer 2"><path class="cls-1" d="M51,61.21h0a20.09,20.09,0,0,0,.81,2.49V58a1.41,1.41,0,0,1-.27.18,1.88,1.88,0,0,1-.34-1V55.3c0-.61.19-.75.61-.75V53.19c-2,.05-2.42,1.16-2.42,2.94a4.71,4.71,0,0,0,.75,3.07A2.74,2.74,0,0,0,49,61.82v2.67a2.73,2.73,0,0,0,2.85,2.75h0v-1.5c-.49,0-.85-.27-.85-1.22Zm.85,2.49c.28.64.57,1.27.87,1.86a.75.75,0,0,1-.59.18h-.28v1.5a2.85,2.85,0,0,0,1.82-.53.92.92,0,0,0,.7.25h1.22V65.53h-.68a2.77,2.77,0,0,0,.21-1V59.74H53.32v3.51h0a28.18,28.18,0,0,0-1.16-3.65A3.73,3.73,0,0,0,54.25,56c0-1.81-.39-2.81-2.27-2.81l-.16,0v1.36c.37,0,.59.16.59.55V57a1.14,1.14,0,0,1-.59,1Z"></path><path class="cls-1" d="M38.35,34.05c.91-3.12,4-4.1,6.75-4.1a0,0,0,0,1,0,0c3.08,0,6.43,1.16,7,4.94.56-3.8,3.92-5,6.95-5,3.3,0,6.93,1.34,7,5.91h0V.94H0V67.08H26.32V30.68h12Z"></path><path class="cls-1" d="M38.08,41.26V36.07c0-.23,0-.45,0-.66H31.73v9.31H38.1v4.73H31.73V62.19H38.1c0-.21,0-.43,0-.66V53.17h5.39v7.91c0,1.81.56,2.24,1.65,2.24h.05c1.06,0,1.6-.41,1.6-2.24V57.25A7.64,7.64,0,0,0,45.12,53c-2.51-3.67-7-7.45-7-11.73"></path><path class="cls-1" d="M66.1,43.7H60.73V36.52c0-1.83-.57-2.24-1.63-2.24s-1.68.41-1.68,2.24V41c0,2.54,8.27,10.06,8.7,13.84V43.7Z"></path><path class="cls-1" d="M52.19,43.7H46.77V36.52c0-1.83-.54-2.24-1.6-2.24l-.05,0c-1.09,0-1.65.43-1.65,2.22V41a7.22,7.22,0,0,0,1.65,3.2c2.27,3.06,6.09,7.2,6.91,9.94v-1h5.39v7.91c0,1.83.57,2.24,1.68,2.24s1.63-.41,1.63-2.24V57.25c0-4.67-7.34-9.27-8.54-14.57Z"></path><path class="cls-1" d="M66.12,61.86v5.22H61.73s4.39,0,4.39-5.22"></path><polygon class="cls-1" points="72.65 0.94 97.05 0.94 97.05 6.87 79.21 6.87 79.21 15.92 96.12 15.92 96.12 21.86 79.21 21.86 79.21 31.84 97.99 31.84 97.99 37.78 72.65 37.78 72.65 0.94"></polygon><polygon class="cls-1" points="103.79 0.93 110.28 0.93 110.28 31.5 125.77 31.5 125.77 37.63 103.79 37.63 103.79 0.93"></polygon><polygon class="cls-1" points="129.2 0.94 153.6 0.94 153.6 6.87 135.75 6.87 135.75 15.92 152.66 15.92 152.66 21.86 135.75 21.86 135.75 31.84 154.53 31.84 154.53 37.78 129.2 37.78 129.2 0.94"></polygon><path class="cls-1" d="M184,9.47c-2.68-2.83-5.15-3.6-7.67-3.6-7.52,0-12.51,5.77-12.51,13,0,7.78,5,13.54,12.51,13.54,2.93,0,5.76-1.34,8.18-4.43l5.36,3.81c-3.3,4.53-8.24,6.49-13.59,6.49-11.22,0-19.25-7.62-19.25-19,0-11.68,8-19.3,19.25-19.3a15.83,15.83,0,0,1,12.76,5.77Z"></path><polygon class="cls-1" points="203.02 6.87 191.72 6.87 191.72 0.94 220.86 0.94 220.86 6.87 209.57 6.87 209.57 37.78 203.02 37.78 203.02 6.87"></polygon><rect class="cls-1" x="223.25" y="0.93" width="6.49" height="36.7"></rect><path class="cls-1" d="M255.35,32.78C263,32.78,268,27,268,19.1c0-7.34-5.05-13.16-12.69-13.16S242.7,11.76,242.7,19.1c0,7.85,5.05,13.68,12.65,13.68M255.29,0c11.5-.2,19.62,7.5,19.62,19.3,0,11.5-8.12,19.2-19.62,19.41-11.34,0-19.45-7.7-19.45-19.2C235.84,7.7,244,0,255.29,0"></path><polygon class="cls-1" points="280.2 0.94 288.88 0.94 306.73 28.31 306.83 28.41 306.73 28.41 306.83 28.31 306.83 0.94 313.39 0.94 313.39 37.78 305.07 37.78 286.86 9.52 286.75 9.52 286.75 37.78 280.2 37.78 280.2 0.94"></polygon><path class="cls-1" d="M83.58,49.71a4.36,4.36,0,0,0-3.83-1.93c-2.21,0-4.5,1-4.5,3.54,0,1.93,1.07,2.8,4.43,3.87S86,57.3,86,61.44s-3.6,6.15-7.41,6.15c-2.44,0-5.06-.8-6.48-2.91l2.14-1.76a5.1,5.1,0,0,0,4.49,2.36c2.15,0,4.59-1.26,4.59-3.67,0-2.59-1.76-3-5.51-4.28-3-1-5.24-2.29-5.24-5.8,0-4.05,3.48-6.07,7.18-6.07a7.23,7.23,0,0,1,5.89,2.47Z"></path><path class="cls-1" d="M93.29,70.36c-.91,2.32-1.82,3.91-4.59,3.91a4.86,4.86,0,0,1-2-.36l.29-2a4.62,4.62,0,0,0,1.62.23c1.5,0,2-.91,2.55-2.26l.94-2.59-5.7-13.83H89l4.26,10.78h.06l4.08-10.78h2.5Z"></path><path class="cls-1" d="M102.73,63.4a4.31,4.31,0,0,0,3.57,1.88c1.46,0,3.06-.63,3.06-2.15s-1.49-1.87-3-2.2c-2.65-.6-4.91-1.16-4.91-4,0-2.71,2.62-4.1,5.2-4.1a5.07,5.07,0,0,1,4.74,2.53l-1.94,1.28a3.3,3.3,0,0,0-2.94-1.67c-1.28,0-2.74.62-2.74,1.93,0,1.16,1.66,1.67,3.51,2,2.47.47,4.55,1.37,4.55,4.16,0,3.16-2.79,4.38-5.56,4.38a5.9,5.9,0,0,1-5.42-2.59Z"></path><path class="cls-1" d="M122.71,55.1h-4.1v7c0,1.79,0,3.22,2.08,3.22a4.47,4.47,0,0,0,2-.48l.09,2.11a7,7,0,0,1-2.71.51c-3.3,0-3.83-1.79-3.83-4.68V55.1h-3v-2h3v-4h2.32v4h4.1Z"></path><path class="cls-1" d="M135.24,58.85a3.88,3.88,0,0,0-4.2-3.93,4.32,4.32,0,0,0-4.55,3.93Zm2,5.68A7.15,7.15,0,0,1,131,67.42c-4.37,0-7-3.28-7-7.32a7,7,0,0,1,7.14-7.32c3.93,0,6.61,2.68,6.61,7.29v.74H126.49A4.67,4.67,0,0,0,131,65.28a5.19,5.19,0,0,0,4.44-2.12Z"></path><path class="cls-1" d="M140.79,56.44c0-1.28-.12-2.38-.12-3.31h2.2c0,.75.06,1.52.06,2.3H143a5,5,0,0,1,4.64-2.65A4.32,4.32,0,0,1,152,55.43a4.83,4.83,0,0,1,4.4-2.65c4,0,5.3,2.23,5.3,5.83v8.45h-2.32V58.73c0-1.94-.69-3.81-3.4-3.81-2,0-3.6,1.61-3.6,4.11v8H150.1V59.18c0-3.07-.77-4.26-2.68-4.26-3,0-4.31,2.17-4.31,5.36v6.78h-2.32Z"></path><path class="cls-1" d="M166.07,63.4a4.31,4.31,0,0,0,3.57,1.88c1.46,0,3.06-.63,3.06-2.15s-1.48-1.87-3-2.2c-2.65-.6-4.91-1.16-4.91-4,0-2.71,2.62-4.1,5.21-4.1a5.06,5.06,0,0,1,4.73,2.53l-1.94,1.28a3.3,3.3,0,0,0-2.94-1.67c-1.28,0-2.74.62-2.74,1.93,0,1.16,1.66,1.67,3.51,2,2.47.47,4.55,1.37,4.55,4.16,0,3.16-2.79,4.38-5.56,4.38a5.9,5.9,0,0,1-5.42-2.59Z"></path><path class="cls-1" d="M187,51.33a2.1,2.1,0,0,0-2.32,2.05c0,1.16,1,2.15,1.73,2.92,1.21-.67,2.72-1.51,2.72-3.09A1.91,1.91,0,0,0,187,51.33m-1.16,7.47c-1.41.81-2.94,1.75-2.94,3.56a3.26,3.26,0,0,0,3.29,3.07,5.25,5.25,0,0,0,3.88-2.23Zm11,8.26h-3.19l-2.15-2.33a6.49,6.49,0,0,1-5.37,2.77c-4,0-5.74-2.52-5.74-5.07s1.86-4,4-5c-1.12-1.18-2.06-2.35-2.06-4,0-2.67,2.18-4.11,4.68-4.11s4.52,1.31,4.52,4c0,2.2-1.88,3.59-3.63,4.5l3.46,3.61,2.2-3.59h2.7L192.85,63Z"></path><path class="cls-1" d="M212.17,49.71a4.37,4.37,0,0,0-3.84-1.93c-2.2,0-4.49,1-4.49,3.54,0,1.93,1.07,2.8,4.43,3.87s6.31,2.11,6.31,6.25-3.6,6.15-7.41,6.15c-2.44,0-5.06-.8-6.49-2.91l2.14-1.76a5.12,5.12,0,0,0,4.5,2.36c2.14,0,4.58-1.26,4.58-3.67,0-2.59-1.76-3-5.5-4.28-3-1-5.24-2.29-5.24-5.8,0-4.05,3.48-6.07,7.17-6.07a7.21,7.21,0,0,1,5.89,2.47Z"></path><path class="cls-1" d="M224.39,65.28a4.86,4.86,0,0,0,4.94-5.18,4.95,4.95,0,1,0-9.88,0,4.87,4.87,0,0,0,4.94,5.18m0-12.5A7.32,7.32,0,1,1,217,60.1a7.09,7.09,0,0,1,7.44-7.32"></path><path class="cls-1" d="M235.88,55.1h-3v-2h3V50c0-3.39,1.19-5.8,4.94-5.8a4.35,4.35,0,0,1,1.78.35l-.32,2.09a4.76,4.76,0,0,0-1.58-.3c-2.41,0-2.5,1.76-2.5,4.16v2.62h3.39v2H238.2v12h-2.32Z"></path><path class="cls-1" d="M252.33,55.1h-4.1v7c0,1.79,0,3.22,2.08,3.22a4.44,4.44,0,0,0,2.05-.48l.1,2.11a7,7,0,0,1-2.71.51c-3.31,0-3.84-1.79-3.84-4.68V55.1h-3v-2h3v-4h2.32v4h4.1Z"></path><polygon class="cls-1" points="270.54 67.06 268.25 67.06 264.29 56.35 264.23 56.35 260.72 67.06 258.34 67.06 253.82 53.13 256.38 53.13 259.56 63.85 259.62 63.85 263.22 53.13 265.66 53.13 269.32 63.85 269.38 63.85 272.54 53.13 275.04 53.13 270.54 67.06"></polygon><path class="cls-1" d="M283.69,60.36c-2.95,0-4.85.81-4.85,2.68s1.31,2.41,3.06,2.41A4,4,0,0,0,286,61.26v-.9ZM277,54.92a7.75,7.75,0,0,1,5.54-2.14c4.1,0,5.83,2,5.83,5.89v6a15.33,15.33,0,0,0,.21,2.41H286.3a9.9,9.9,0,0,1-.15-2.08h0a5.3,5.3,0,0,1-4.59,2.44c-2.82,0-5.17-1.43-5.17-4.14,0-4.61,5.35-4.88,8.78-4.88H286V58c0-2-1.28-3.07-3.45-3.07a6.19,6.19,0,0,0-4.14,1.52Z"></path><path class="cls-1" d="M292.08,56.44c0-1.28-.12-2.38-.12-3.31h2.2c0,.75.06,1.52.06,2.3h.06a5,5,0,0,1,4.64-2.65,2.69,2.69,0,0,1,.95.15l-.15,2.35a4.28,4.28,0,0,0-1.24-.18c-2.83,0-4.08,2-4.08,5.18v6.78h-2.32Z"></path><path class="cls-1" d="M312.22,58.85A3.87,3.87,0,0,0,308,54.92a4.32,4.32,0,0,0-4.56,3.93Zm2,5.68A7.16,7.16,0,0,1,308,67.42c-4.38,0-7-3.28-7-7.32a7,7,0,0,1,7.14-7.32c3.93,0,6.6,2.68,6.6,7.29v.74H303.47A4.67,4.67,0,0,0,308,65.28a5.19,5.19,0,0,0,4.43-2.12Z"></path><path class="cls-1" d="M318.27,3.8a2.7,2.7,0,0,1,.23-1.14,2.81,2.81,0,0,1,.61-.9,2.9,2.9,0,0,1,3.13-.6,2.8,2.8,0,0,1,.91.59,3,3,0,0,1,.62.9,2.87,2.87,0,0,1,0,2.25,2.77,2.77,0,0,1-.62.91,2.67,2.67,0,0,1-.91.6,2.86,2.86,0,0,1-3.74-1.49A2.61,2.61,0,0,1,318.27,3.8Zm.45,0a2.48,2.48,0,0,0,.19,1,2.55,2.55,0,0,0,.52.77,2.67,2.67,0,0,0,.76.51,2.47,2.47,0,0,0,.94.19,2.43,2.43,0,0,0,.94-.19,2.55,2.55,0,0,0,.77-.52,2.35,2.35,0,0,0,.51-.77,2.4,2.4,0,0,0,.19-1,2.38,2.38,0,0,0-.19-1,2.21,2.21,0,0,0-.51-.76,2.35,2.35,0,0,0-.77-.51,2.26,2.26,0,0,0-.94-.19,2.47,2.47,0,0,0-.94.19,2.67,2.67,0,0,0-.76.51,2.48,2.48,0,0,0-.52.78A2.54,2.54,0,0,0,318.72,3.8Zm1.35-1.64h1.21a1.41,1.41,0,0,1,.88.22.86.86,0,0,1,.28.72.77.77,0,0,1-.25.65,1.19,1.19,0,0,1-.62.25l.95,1.45H322L321.12,4h-.59V5.45h-.46Zm.46,1.46h.89a.83.83,0,0,0,.29-.06.53.53,0,0,0,.2-.16.55.55,0,0,0,.07-.31.54.54,0,0,0-.06-.27.46.46,0,0,0-.18-.16.84.84,0,0,0-.24-.07h-1Z"></path></g></g></svg> 